<svg class="marks" width="995" height="551" viewBox="0 0 995 551" version="1.1" xmlns="http://www.w3.org/2000/svg" xmlns:xlink="http://www.w3.org/1999/xlink"><rect width="995" height="551" style="fill: #f1f1f1;"></rect><g transform="translate(43,5)"><g class="mark-group role-frame root"><g transform="translate(0,0)"><path class="background" d="M0,0h900v0h-900Z" style="fill: none;"></path><g><g class="mark-group role-scope concat_0_group"><g transform="translate(0,0)"><path class="background" d="M0.5,0.5h900v400h-900Z" style="fill: none; stroke: #ddd; stroke-width: 0;"></path><g><g class="mark-group role-scope concat_0_layer_0_pathgroup"><g transform="translate(0,0)"><path class="background" d="M0,0h900v400h-900Z" style="fill: none;"></path><g><g class="mark-trail role-mark concat_0_layer_0_marks"><path d="M-0.9582121970442684,179.01974470913032L31.816733178046697,167.5196910338744A2.894117647058824,2.894117647058824,0,1,1,33.73315757213478,172.9814659616624L0.9582121970438137,184.4815196369183A2.894117647058824,2.894117647058824,0,0,1,-0.9582121970442703,179.01974470913032ZM29.89917362724328,169.92522667389204L38.18430180259256,112.18168074887957A1.1529411764705881,1.1529411764705881,0,1,1,40.475567097625486,112.44090415326887L35.6507171229382,170.57593032164476A2.894117647058824,2.894117647058824,0,1,1,29.89917362724328,169.92522667389204Z" style="fill: #EBD2A8;"></path></g></g></g><g transform="translate(0,0)"><path class="background" d="M0,0h900v400h-900Z" style="fill: none;"></path><g><g class="mark-trail role-mark concat_0_layer_0_marks"><path d="M40.46777666494087,112.497272155741L14.247820364867959,272.91355630203225A1.1529411764705881,1.1529411764705881,0,1,1,11.972135935204268,272.54159689269864L38.19209223527717,112.12531274640745A1.1529411764705881,1.1529411764705881,0,1,1,40.46777666494087,112.497272155741ZM14.106081710427965,273.30813757898244L7.5510926354099075,284.554928463498A1.1529411764705881,1.1529411764705881,0,1,1,5.558885514626206,283.393806500264L12.113874589644261,272.14701561574844A1.1529411764705881,1.1529411764705881,0,1,1,14.106081710427965,273.30813757898244Z" style="fill: silver;"></path></g></g></g><g transform="translate(0,0)"><path class="background" d="M0,0h900v400h-900Z" style="fill: none;"></path><g><g class="mark-trail role-mark concat_0_layer_0_marks"><path d="M-2.3221655598000495,186.58707278449342L30.452779815290917,175.11586187777934A7.029411764705883,7.029411764705883,0,1,1,35.09711093489056,188.3854024682693L2.3221655597995947,199.85661337498337A7.029411764705883,7.029411764705883,0,1,1,-2.3221655598000495,186.58707278449342ZM37.39077768704453,176.4490548770011L102.94066843722669,233.52024084210845A7.029411764705883,7.029411764705883,0,1,1,93.7090038133191,244.1233954341549L28.159113063136946,187.05220946904754A7.029411764705883,7.029411764705883,0,1,1,37.390777687044526,176.4490548770011ZM92.37126064519856,235.08449707073015L166.31950693703268,121.37814155695375A4.852941176470588,4.852941176470588,0,1,1,174.53992496391353,126.53845934876338L104.27841160534723,242.5591392055332A7.029411764705883,7.029411764705883,0,1,1,92.37126064519856,235.08449707073015ZM171.47936105427866,119.22023299678105L223.75451118055415,131.58121249562274A4.091176470588236,4.091176470588236,0,1,1,221.98474592068325,139.56988138217284L169.38007084666756,128.69636790893608A4.852941176470588,4.852941176470588,0,1,1,171.47936105427866,119.22023299678105ZM223.42088091850528,131.5216789414916L308.5917496681235,143.43284425151327A3.7647058823529416,3.7647058823529416,0,1,1,307.57722338358747,150.89359340561816L222.31837618273212,139.629414936304A4.091176470588236,4.091176470588236,0,0,1,223.42088091850528,131.5216789414916Z" style="fill: #EBD2A8;"></path></g></g></g><g transform="translate(0,0)"><path class="background" d="M0,0h900v400h-900Z" style="fill: none;"></path><g><g class="mark-trail role-mark concat_0_layer_0_marks"><path d="M311.7456011336072,146.286149726653L344.5205465086984,283.0972983799683A3.7647058823529416,3.7647058823529416,0,1,1,337.198317293195,284.8514365837937L304.4233719181038,148.04028793047846A3.7647058823529416,3.7647058823529416,0,1,1,311.7456011336072,146.286149726653ZM341.75361301486356,287.6313403442546L295.868689489736,298.850847180589A3.7647058823529416,3.7647058823529416,0,1,1,294.08032726190226,291.5369014558418L339.9652507870298,280.3173946195074A3.7647058823529416,3.7647058823529416,0,1,1,341.75361301486356,287.6313403442546ZM292.5266867580328,298.0541504776309L279.5582232952745,286.6692839258303A3.5470588235294116,3.5470588235294116,0,1,1,284.17083715629064,281.2794510379317L297.4223299936055,292.33359815879993A3.7647058823529416,3.7647058823529416,0,1,1,292.5266867580328,298.0541504776309ZM280.46481915256027,287.2335752397689L228.36845089542777,263.912603748497A2.676470588235294,2.676470588235294,0,0,1,230.4807843558462,258.9940646777209L283.2642412990049,280.7151597239931A3.5470588235294116,3.5470588235294116,0,1,1,280.46481915256027,287.2335752397689ZM229.83808400498418,264.09767540948246L157.63233655756937,274.72681477660166A2.023529411764706,2.023529411764706,0,1,1,157.0071390433037,270.7283384181292L229.01115124628978,258.8089930167355A2.676470588235294,2.676470588235294,0,1,1,229.83808400498418,264.09767540948246ZM158.11742428018945,270.8679079278718L184.25158290656802,282.3147213146294A1.8058823529411765,1.8058823529411765,0,1,1,182.82780529445088,285.6340136491326L156.52205132068363,274.5872452668591A2.023529411764706,2.023529411764706,0,1,1,158.11742428018945,270.8679079278718ZM183.26104943091724,285.7586231308204L39.118454945174214,262.8075086958545A1.3705882352941177,1.3705882352941177,0,1,1,39.54141395504383,260.09915973036345L183.81833877010166,282.1901118329416A1.8058823529411765,1.8058823529411765,0,1,1,183.26104943091724,285.7586231308204ZM40.223596362083455,262.4925072005431L26.829794257170885,273.43671181196646A0.9352941176470588,0.9352941176470588,0,1,1,25.610118342974022,272.0184413827644L38.43627253813459,260.41416122567483A1.3705882352941177,1.3705882352941177,0,1,1,40.223596362083455,262.4925072005431ZM26.219956300072454,273.6628707150125L13.109978150036113,273.6628707150125A0.9352941176470588,0.9352941176470588,0,1,1,13.109978150036113,271.7922824797184L26.219956300072454,271.7922824797184A0.9352941176470588,0.9352941176470588,0,1,1,26.219956300072454,273.6628707150125ZM13.91804175259889,273.19854188347307L7.363052677580834,284.44533276798865A0.9352941176470588,0.9352941176470588,0,1,1,5.746925472455279,283.5034021957734L12.301914547473336,272.2566113112578A0.9352941176470588,0.9352941176470588,0,1,1,13.91804175259889,273.19854188347307Z" style="fill: silver;"></path></g></g></g><g transform="translate(0,0)"><path class="background" d="M0,0h900v400h-900Z" style="fill: none;"></path><g><g class="mark-trail role-mark concat_0_layer_0_marks"><path d="M-12.333094378643306,180.66454478291786L20.44185099644766,169.25048366989455A37.5,37.5,0,1,1,45.10803975373381,240.07829693692923L12.333094378642851,251.49235804995254A37.5,37.5,0,1,1,-12.3330943786433,180.66454478291786ZM57.32966435112449,176.32156447379484L122.87955510130665,233.11050838349192A37.5,37.5,0,1,1,73.77011714923914,289.796160042726L8.220226399056983,233.00721613302895A37.5,37.5,0,1,1,57.32966435112449,176.32156447379484ZM77.01692131054914,230.59522723538794L111.02856134939661,209.75469148696072A35.3235294117647,35.3235294117647,0,1,1,151.1710016513311,267.8889447893026L119.63275093999665,292.31144119083A37.5,37.5,0,1,1,77.01692131054914,230.59522723538794ZM125.06924195435207,204.0168713217983L190.99070633184863,194.8037736344417A33.14705882352941,33.14705882352941,0,1,1,202.30863816924295,260.12463135635295L137.13032104637566,273.62676495446505A35.3235294117647,35.3235294117647,0,0,1,125.06924195435205,204.0168713217983ZM190.97709783174432,194.8061344552686L256.89945575760646,185.56474631771687A30.970588235294116,30.970588235294116,0,1,1,267.4996702438495,246.59215651515353L202.32224666934727,260.12227053552607A33.14705882352941,33.14705882352941,0,0,1,190.9770978317443,194.8061344552686ZM252.01387799624868,186.83073087910674L286.22042962078234,179.52746049687605A26.617647058823533,26.617647058823533,0,1,1,303.72858713085594,229.80132010994774L272.38524800520725,245.32617195376366A30.970588235294116,30.970588235294116,0,1,1,252.01387799624865,186.83073087910677ZM286.2009530453418,179.53425178785352L320.0519919471543,171.17396464730376A23.35294117647059,23.35294117647059,0,1,1,335.4469155546659,215.26972151217302L303.7480637062965,229.79452881897026A26.617647058823533,26.617647058823533,0,1,1,286.2009530453418,179.53425178785352ZM323.7238728048835,170.2184833329822L389.8365336873183,161.96310735308165A20.08823529411765,20.08823529411765,0,1,1,396.7621553148653,201.53815699296698L331.7750346969367,216.22520282649458A23.35294117647059,23.35294117647059,0,1,1,323.7238728048835,170.2184833329822ZM383.15850747122374,164.40991068960585L403.09815329811227,153.37955444838104A19.544117647058822,19.544117647058822,0,1,1,422.8304701541806,187.12160254715576L403.4401815309599,199.09135365644278A20.08823529411765,20.08823529411765,0,1,1,383.15850747122374,164.40991068960585ZM421.8909636536533,152.8641636871407L531.834644198409,212.98206465087898A16.279411764705884,16.279411764705884,0,1,1,516.9636078045037,241.94634033991568L404.0376597986396,187.63699330839611A19.544117647058822,19.544117647058822,0,0,1,421.8909636536533,152.8641636871407ZM522.0670397943155,211.3526966276236L600.8048555686661,200.50545116483818A15.735294117647058,15.735294117647058,0,1,1,605.3131342346836,231.65145166803222L526.7312122085972,243.57570836317106A16.279411764705884,16.279411764705884,0,1,1,522.0670397943155,211.3526966276236ZM592.6897470800333,204.24298857874948L672.2747079401148,136.38365625488512A14.331470588235295,14.331470588235295,0,1,1,691.163019663671,157.94278140224634L613.4282427233164,227.91391425412093A15.735294117647058,15.735294117647058,0,1,1,592.6897470800333,204.24298857874948ZM683.9872144010324,133.01240136875668L755.6253149979287,147.48262698023302A11.382352941176471,11.382352941176471,0,1,1,752.0221722562579,169.96037589539753L679.4505132027534,161.31403628837478A14.331470588235295,14.331470588235295,0,1,1,683.9872144010324,133.01240136875668ZM750.0381893879046,147.98709239121803L782.8131347629958,136.42880978196848A11.382352941176471,11.382352941176471,0,1,1,790.3842432413733,157.89762787516298L757.6092978662821,169.45591048441253A11.382352941176471,11.382352941176471,0,1,1,750.0381893879046,147.98709239121803ZM783.0092865652067,136.36163798949747L887.8891117654979,101.50971161200596A11.382352941176471,11.382352941176471,0,1,1,895.0679166394535,123.11287329014249L790.1880914391623,157.964799667634A11.382352941176471,11.382352941176471,0,1,1,783.0092865652067,136.36163798949747Z" style="fill: #EBD2A8;"></path></g></g></g><g transform="translate(0,0)"><path class="background" d="M0,0h900v400h-900Z" style="fill: none;"></path><g><g class="mark-trail role-mark concat_0_layer_0_marks"><path d="M901.397803485585,117.89391357340571L894.6531432459803,129.43417378111963A11.16470588235294,11.16470588235294,0,1,1,875.193907008935,118.48242712459749L881.5592249193664,106.72867132874273A11.382352941176471,11.382352941176471,0,1,1,901.397803485585,117.89391357340571ZM895.2677839046465,128.1591298697709L862.3920119819379,208.8242738066188A11.055882352941175,11.055882352941175,0,1,1,841.905147522795,200.50450680020498L874.5792663502688,119.75747103594622A11.16470588235294,11.16470588235294,0,1,1,895.2677839046465,128.1591298697709ZM852.1485797523665,215.72027265635307L839.0386016023299,215.6114491269413A10.947058823529412,10.947058823529412,0,1,1,839.0386016023299,193.7173314798825L852.1485797523665,193.6085079504707A11.055882352941175,11.055882352941175,0,1,1,852.1485797523665,215.72027265635307ZM835.1948209643112,214.91443651270316L743.7688693875813,179.58357328640037A9.967647058823529,9.967647058823529,0,1,1,750.7686397165684,160.91758370913644L842.8823822403485,194.41434409412062A10.947058823529412,10.947058823529412,0,1,1,835.1948209643112,214.91443651270316ZM748.8386593393091,180.09381916577465L676.1853087946977,188.15498321255038A6.485294117647059,6.485294117647059,0,1,1,674.142440659052,175.34628113349825L745.6988497648406,160.40733782976216A9.967647058823529,9.967647058823529,0,1,1,748.8386593393091,180.09381916577465ZM678.8736083386542,187.07011676478902L612.203226620016,231.17698561862903A4.526470588235294,4.526470588235294,0,1,1,607.0247413333689,223.75141937216563L671.4541411150955,176.4311475812596A6.485294117647059,6.485294117647059,0,1,1,678.8736083386542,187.07011676478902ZM610.7785278662146,231.83830509084885L525.1997026324599,253.1584893791546A3.111764705882353,3.111764705882353,0,1,1,523.5985493704528,247.14445358189963L608.4494400871703,223.0900998999458A4.526470588235294,4.526470588235294,0,1,1,610.7785278662146,231.83830509084885ZM525.053955640229,253.19355591869777L420.08252856230183,275.3441142521247A2.676470588235294,2.676470588235294,0,1,1,418.9560730400276,270.11103894260617L523.7442963626837,247.10938704235645A3.111764705882353,3.111764705882353,0,1,1,525.053955640229,253.19355591869777ZM419.5193008011647,275.40404718560075L340.8594319009467,275.40404718560075A2.676470588235294,2.676470588235294,0,1,1,340.8594319009467,270.05110600913014L419.5193008011647,270.05110600913014A2.676470588235294,2.676470588235294,0,1,1,419.5193008011647,275.40404718560075ZM341.4965972109255,275.3270987029549L295.61167368579794,286.5738895874705A2.676470588235294,2.676470588235294,0,1,1,294.33734306584034,281.37484537629155L340.2222665909679,270.12805449177597A2.676470588235294,2.676470588235294,0,1,1,341.4965972109255,275.3270987029549ZM293.23182108995445,286.0057551438929L280.1218429399179,274.7589642593773A2.676470588235294,2.676470588235294,0,1,1,283.60721751164726,270.6961889353536L296.71719566168383,281.94297981986915A2.676470588235294,2.676470588235294,0,1,1,293.23182108995445,286.0057551438929Z" style="fill: silver;"></path></g></g></g></g><g class="mark-text role-mark concat_0_layer_1_marks"><text text-anchor="middle" transform="translate(-3.0000000000002274,204.6643903034119)" style="font-family: Cardo; font-size: 11px; font-style: italic; fill: black;">Kowno</text><text text-anchor="middle" transform="translate(82.21485797523633,238.82181813813168)" style="font-family: Cardo; font-size: 11px; font-style: italic; fill: black;">Wilna</text><text text-anchor="middle" transform="translate(154.31973780043654,272.72757659736544)" style="font-family: Cardo; font-size: 11px; font-style: italic; fill: black;">Smorgoni</text><text text-anchor="middle" transform="translate(180.53969410050945,283.974367481881)" style="font-family: Cardo; font-size: 11px; font-style: italic; fill: black;">Molodexno</text><text text-anchor="middle" transform="translate(239.53459577567332,181.75063217302431)" style="font-family: Cardo; font-size: 11px; font-style: italic; fill: black;">Gloubokoe</text><text text-anchor="middle" transform="translate(232.97960670065504,328.69034442577595)" style="font-family: Cardo; font-size: 11px; font-style: italic; fill: black;">Minsk</text><text text-anchor="middle" transform="translate(291.97450837581914,283.974367481881)" style="font-family: Cardo; font-size: 11px; font-style: italic; fill: black;">Studienska</text><text text-anchor="middle" transform="translate(305.0844865258555,147.16321882856573)" style="font-family: Cardo; font-size: 11px; font-style: italic; fill: black;">Polotzk</text><text text-anchor="middle" transform="translate(337.8594319009467,272.72757659736544)" style="font-family: Cardo; font-size: 11px; font-style: italic; fill: black;">Bobr</text><text text-anchor="middle" transform="translate(403.4093226511284,170.2505784977684)" style="font-family: Cardo; font-size: 11px; font-style: italic; fill: black;">Witebsk</text><text text-anchor="middle" transform="translate(416.5193008011647,261.453334213109)" style="font-family: Cardo; font-size: 11px; font-style: italic; fill: black;">Orscha</text><text text-anchor="middle" transform="translate(416.5193008011647,328.69034442577595)" style="font-family: Cardo; font-size: 11px; font-style: italic; fill: black;">Mohilow</text><text text-anchor="middle" transform="translate(521.3991260014564,227.46420249539733)" style="font-family: Cardo; font-size: 11px; font-style: italic; fill: black;">Smolensk</text><text text-anchor="middle" transform="translate(600.0589949016749,216.0784514164352)" style="font-family: Cardo; font-size: 11px; font-style: italic; fill: black;">Dorogobouge</text><text text-anchor="middle" transform="translate(672.1638747268748,181.75063217302431)" style="font-family: Cardo; font-size: 11px; font-style: italic; fill: black;">Wixma</text><text text-anchor="middle" transform="translate(678.7188638018929,147.16321882856573)" style="font-family: Cardo; font-size: 11px; font-style: italic; fill: black;">Chjat</text><text text-anchor="middle" transform="translate(783.5986890021845,147.16321882856573)" style="font-family: Cardo; font-size: 11px; font-style: italic; fill: black;">Mojaisk</text><text text-anchor="middle" transform="translate(888.4785142024757,112.31129245107422)" style="font-family: Cardo; font-size: 11px; font-style: italic; fill: black;">Moscou</text><text text-anchor="middle" transform="translate(822.9286234522938,170.2505784977684)" style="font-family: Cardo; font-size: 11px; font-style: italic; fill: black;">Tarantino</text><text text-anchor="middle" transform="translate(816.3736343772753,204.6643903034119)" style="font-family: Cardo; font-size: 11px; font-style: italic; fill: black;">Malo-Jarosewli</text></g><g class="mark-text role-mark concat_0_layer_2_marks"><text text-anchor="middle" transform="translate(25.564457392570603,141.37306808866924) rotate(280)" style="font-family: Cardo; font-size: 7px; font-style: italic; fill: black;">22000</text><text text-anchor="middle" transform="translate(64.89439184268008,71.30965557422587) rotate(280)" style="font-family: Cardo; font-size: 7px; font-style: italic; fill: black;">6000</text><text text-anchor="middle" transform="translate(38.67443554260717,296.31433078478585) rotate(280)" style="font-family: Cardo; font-size: 7px; font-style: italic; fill: black;">6000</text><text text-anchor="middle" transform="translate(17.04297159504722,152.94602227311861) rotate(280)" style="font-family: Cardo; font-size: 7px; font-style: italic; fill: black;">60000</text><text text-anchor="middle" transform="translate(115.36780772032012,198.94668851841925) rotate(280)" style="font-family: Cardo; font-size: 7px; font-style: italic; fill: black;">60000</text><text text-anchor="middle" transform="translate(239.91260014566592,94.78456472319522) rotate(280)" style="font-family: Cardo; font-size: 7px; font-style: italic; fill: black;">33000</text><text text-anchor="middle" transform="translate(325.1274581209027,171.4018869253623) rotate(280)" style="font-family: Cardo; font-size: 7px; font-style: italic; fill: black;">30000</text><text text-anchor="middle" transform="translate(312.0174799708666,318.66676619035843) rotate(280)" style="font-family: Cardo; font-size: 7px; font-style: italic; fill: black;">30000</text><text text-anchor="middle" transform="translate(246.46758922068443,285.09754319674994) rotate(280)" style="font-family: Cardo; font-size: 7px; font-style: italic; fill: black;">20000</text><text text-anchor="middle" transform="translate(200.5826656955569,307.50401692647574) rotate(280)" style="font-family: Cardo; font-size: 7px; font-style: italic; fill: black;">12000</text><text text-anchor="middle" transform="translate(43.2629278951199,296.31433078478585) rotate(280)" style="font-family: Cardo; font-size: 7px; font-style: italic; fill: black;">4000</text><text text-anchor="middle" transform="translate(23.597960670065277,307.50401692647574) rotate(280)" style="font-family: Cardo; font-size: 7px; font-style: italic; fill: black;">4000</text><text text-anchor="middle" transform="translate(41.296431172614575,164.48967923966302) rotate(280)" style="font-family: Cardo; font-size: 7px; font-style: italic; fill: black;">340000</text><text text-anchor="middle" transform="translate(139.62126729788747,198.94668851841925) rotate(280)" style="font-family: Cardo; font-size: 7px; font-style: italic; fill: black;">320000</text><text text-anchor="middle" transform="translate(270.72104879825156,176.00422193389204) rotate(280)" style="font-family: Cardo; font-size: 7px; font-style: italic; fill: black;">280000</text><text text-anchor="middle" transform="translate(336.2709395484337,152.94602227311861) rotate(280)" style="font-family: Cardo; font-size: 7px; font-style: italic; fill: black;">210000</text><text text-anchor="middle" transform="translate(421.4857975236705,129.77063216508486) rotate(280)" style="font-family: Cardo; font-size: 7px; font-style: italic; fill: black;">175000</text><text text-anchor="middle" transform="translate(611.5804806991987,176.00422193389204) rotate(280)" style="font-family: Cardo; font-size: 7px; font-style: italic; fill: black;">140000</text><text text-anchor="middle" transform="translate(762.3452294246172,118.13852838704315) rotate(280)" style="font-family: Cardo; font-size: 7px; font-style: italic; fill: black;">100000</text><text text-anchor="middle" transform="translate(899.9999999999995,71.30965557422587) rotate(280)" style="font-family: Cardo; font-size: 7px; font-style: italic; fill: black;">100000</text><text text-anchor="middle" transform="translate(893.445010924981,148.32036656318542) rotate(280)" style="font-family: Cardo; font-size: 7px; font-style: italic; fill: black;">98000</text><text text-anchor="middle" transform="translate(847.5600873998537,228.60122728615625) rotate(280)" style="font-family: Cardo; font-size: 7px; font-style: italic; fill: black;">96000</text><text text-anchor="middle" transform="translate(683.6853605243987,205.8070753727634) rotate(280)" style="font-family: Cardo; font-size: 7px; font-style: italic; fill: black;">55000</text><text text-anchor="middle" transform="translate(532.9206117989802,273.85348822945707) rotate(280)" style="font-family: Cardo; font-size: 7px; font-style: italic; fill: black;">24000</text><text text-anchor="middle" transform="translate(349.38091769847006,296.31433078478585) rotate(280)" style="font-family: Cardo; font-size: 7px; font-style: italic; fill: black;">20000</text><text text-anchor="middle" transform="translate(290.3860160233062,296.31433078478585) rotate(280)" style="font-family: Cardo; font-size: 7px; font-style: italic; fill: black;">20000</text></g></g></g></g><g class="mark-group role-scope concat_1_group"><g transform="translate(0,418)"><path class="background" d="M0.5,0.5h900v100h-900Z" style="fill: none; stroke: #ddd; stroke-width: 0;"></path><g><g class="mark-group role-axis"><g transform="translate(900.5,0.5)"><path class="background" d="M0,0h0v0h0Z" style="pointer-events: none; fill: none;"></path><g><g class="mark-rule role-axis-grid" style="pointer-events: none;"><line transform="translate(0,100)" x2="-900" y2="0" style="fill: none; stroke: #ddd; stroke-width: 1; opacity: 1;"></line><line transform="translate(0,67)" x2="-900" y2="0" style="fill: none; stroke: #ddd; stroke-width: 1; opacity: 1;"></line><line transform="translate(0,33)" x2="-900" y2="0" style="fill: none; stroke: #ddd; stroke-width: 1; opacity: 1;"></line><line transform="translate(0,0)" x2="-900" y2="0" style="fill: none; stroke: #ddd; stroke-width: 1; opacity: 1;"></line></g></g></g></g><g class="mark-line role-mark concat_1_layer_0_marks"><path d="M874.2857142857143,0L771.4285714285713,0L591.4285714285717,30L514.2857142857142,70L334.2857142857142,36.66666666666667L289.28571428571433,66.66666666666667L205.71428571428567,80L173.57142857142853,100L83.57142857142861,86.66666666666667" style="fill: none; stroke: #888888; stroke-width: 2;"></path></g><g class="mark-text role-mark concat_1_layer_1_marks"><text text-anchor="middle" transform="translate(879.2857142857143,20)" style="font-family: Cardo; font-size: 10px; fill: black;">0° Oct 18</text><text text-anchor="middle" transform="translate(776.4285714285713,20)" style="font-family: Cardo; font-size: 10px; fill: black;">0° Oct 24</text><text text-anchor="middle" transform="translate(596.4285714285717,50)" style="font-family: Cardo; font-size: 10px; fill: black;">-9° Nov 9</text><text text-anchor="middle" transform="translate(519.2857142857142,90)" style="font-family: Cardo; font-size: 10px; fill: black;">-21° Nov 14</text><text text-anchor="middle" transform="translate(339.2857142857142,56.66666666666667)" style="font-family: Cardo; font-size: 10px; fill: black;">-11° </text><text text-anchor="middle" transform="translate(294.28571428571433,86.66666666666667)" style="font-family: Cardo; font-size: 10px; fill: black;">-20° Nov 28</text><text text-anchor="middle" transform="translate(210.71428571428567,100)" style="font-family: Cardo; font-size: 10px; fill: black;">-24° Dec 1</text><text text-anchor="middle" transform="translate(178.57142857142853,120)" style="font-family: Cardo; font-size: 10px; fill: black;">-30° Dec 6</text><text text-anchor="middle" transform="translate(88.57142857142861,106.66666666666667)" style="font-family: Cardo; font-size: 10px; fill: black;">-26° Dec 7</text></g><g class="mark-group role-axis"><g transform="translate(900.5,0.5)"><path class="background" d="M0,0h0v0h0Z" style="pointer-events: none; fill: none;"></path><g><g class="mark-rule role-axis-tick" style="pointer-events: none;"><line transform="translate(0,100)" x2="5" y2="0" style="fill: none; stroke: #888; stroke-width: 1; opacity: 1;"></line><line transform="translate(0,67)" x2="5" y2="0" style="fill: none; stroke: #888; stroke-width: 1; opacity: 1;"></line><line transform="translate(0,33)" x2="5" y2="0" style="fill: none; stroke: #888; stroke-width: 1; opacity: 1;"></line><line transform="translate(0,0)" x2="5" y2="0" style="fill: none; stroke: #888; stroke-width: 1; opacity: 1;"></line></g><g class="mark-text role-axis-label" style="pointer-events: none;"><text text-anchor="start" transform="translate(7,103)" style="font-family: Cardo; font-size: 10px; fill: #000; opacity: 1;">-30</text><text text-anchor="start" transform="translate(7,69.66666666666667)" style="font-family: Cardo; font-size: 10px; fill: #000; opacity: 1;">-20</text><text text-anchor="start" transform="translate(7,36.33333333333334)" style="font-family: Cardo; font-size: 10px; fill: #000; opacity: 1;">-10</text><text text-anchor="start" transform="translate(7,3)" style="font-family: Cardo; font-size: 10px; fill: #000; opacity: 1;">0</text></g><g class="mark-rule role-axis-domain" style="pointer-events: none;"><line transform="translate(0,100)" x2="0" y2="-100" style="fill: none; stroke: #888; stroke-width: 1; opacity: 1;"></line></g><g class="mark-text role-axis-title" style="pointer-events: none;"><text text-anchor="middle" transform="translate(34,50) rotate(90) translate(0,-2)" style="font-family: Cardo; font-size: 11px; font-weight: bold; fill: #000; opacity: 1;">Temperature on Retreat</text></g></g></g></g></g></g></g></g></g></g></g></svg>